<svg width="159" height="179" viewBox="0 0 159 179" fill="none" xmlns="http://www.w3.org/2000/svg">
<rect y="137" width="159" height="42" rx="21" fill="white" fill-opacity="0.71"/>
<path d="M41.3 148.06H28.58V146.83H41.3V148.06ZM41.3 151.48H28.58V150.22H41.3V151.48ZM44.87 144.55H25.16V153.76H44.87V144.55ZM43.16 161.53C42.62 162.61 41.93 163.6 41.12 164.47C40.31 163.6 39.62 162.61 39.11 161.53H43.16ZM27.26 165.1H31.16V166.27C29.84 166.39 28.52 166.48 27.26 166.57V165.1ZM27.26 161.38H31.16V162.64H27.26V161.38ZM31.16 157.69V158.89H27.26V157.69H31.16ZM45.26 158.68L44.66 158.8H35.33V161.53H38.09L36.11 162.07C36.83 163.72 37.76 165.22 38.84 166.51C37.58 167.44 36.11 168.16 34.58 168.67V157.69H48.32V154.87H21.65V157.69H23.99V166.81C23.06 166.9 22.16 166.93 21.38 166.99L21.65 170.05C24.29 169.81 27.71 169.51 31.16 169.18V171.61H34.58V169.18C35.18 169.9 35.84 170.89 36.17 171.58C38.03 170.89 39.74 169.96 41.27 168.79C42.86 170.02 44.72 170.95 46.85 171.58C47.33 170.74 48.26 169.45 48.95 168.79C46.97 168.31 45.17 167.56 43.67 166.57C45.35 164.68 46.64 162.34 47.45 159.52L45.26 158.68ZM60.53 149.47C60.29 150.49 59.81 151.87 59.42 152.77L61.4 153.19H55.52L57.02 152.77C56.9 151.87 56.51 150.49 56 149.47H60.53ZM60.14 161.44H65.09V158.44H60.14V156.13H65.36V153.19H62.33C62.75 152.29 63.23 151.09 63.77 149.8L62.03 149.47H65.12V146.56H60.14V143.83H56.69V146.56H51.65V149.47H55.01L53.18 149.89C53.6 150.91 53.96 152.2 54.08 153.19H51.32V156.13H56.69V158.44H51.41V161.44H55.97C54.59 163.69 52.52 165.94 50.57 167.23C51.32 167.8 52.34 168.97 52.88 169.75C54.17 168.7 55.52 167.2 56.69 165.52V171.55H60.14V165.16C61.01 166 61.85 166.9 62.33 167.5L64.4 164.95C63.71 164.41 61.22 162.43 60.14 161.68V161.44ZM78.98 153.46H69.62V149.26C72.77 148.6 76.19 147.67 78.83 146.5L75.98 143.89C74.15 144.88 71.18 145.84 68.33 146.53L66.26 145.96V156.34C66.26 160.48 65.9 165.58 62.45 169.24C63.26 169.66 64.55 170.89 65 171.67C68.96 167.56 69.59 161.23 69.62 156.76H72.68V171.43H76.13V156.76H78.98V153.46ZM105.17 144.28C104.57 146.08 103.43 148.48 102.53 150.01L105.62 151.15C106.55 149.74 107.69 147.61 108.65 145.51L105.17 144.28ZM84.89 171.46C86.51 168.43 88.16 164.98 89.54 161.77L86.9 159.61C85.28 163.12 83.24 166.9 81.74 169.18L84.89 171.46ZM88.43 155.17C87.23 154.06 84.8 152.62 82.94 151.75L80.93 154.27C82.82 155.26 85.19 156.82 86.3 157.96L88.43 155.17ZM82.31 146.35C84.14 147.34 86.48 148.9 87.53 150.04L89.75 147.28C88.58 146.14 86.24 144.7 84.38 143.86L82.31 146.35ZM96.26 149.89C95.81 148.33 94.52 146.14 93.32 144.49L90.32 145.81C91.49 147.55 92.66 149.89 93.02 151.36L96.26 149.89ZM94.76 162.7V160.45H103.85V162.7H94.76ZM103.85 155.26V157.45H94.76V155.26H103.85ZM107.33 151.93H101.21V143.59H97.61V151.93H91.25V171.55H94.76V165.7H103.85V167.68C103.85 168.07 103.7 168.22 103.25 168.25C102.77 168.25 101.21 168.25 99.83 168.16C100.31 169.09 100.79 170.56 100.91 171.52C103.16 171.52 104.78 171.49 105.89 170.92C107.03 170.38 107.33 169.45 107.33 167.71V151.93ZM119.06 156.7H131.18V158.23H119.06V156.7ZM119.06 152.62H131.18V154.15H119.06V152.62ZM119.06 148.6H131.18V150.07H119.06V148.6ZM121.91 162.4C123.5 163.69 125.24 165.55 125.99 166.84L128.78 164.92C128 163.66 126.35 162.07 124.85 160.93H134.78V145.87H126.41C126.74 145.24 127.13 144.55 127.49 143.8L123.17 143.29C123.05 144.04 122.78 145 122.51 145.87H115.61V160.93H124.16L121.91 162.4ZM113.75 170.59C115.55 168.82 116.63 166.15 117.38 163.69L114.2 162.55C113.57 164.77 112.37 167.08 110.75 168.52L113.75 170.59ZM123.8 168.34C122.36 168.34 122.15 168.25 122.15 167.38V163.09H118.61V167.44C118.61 170.53 119.54 171.52 123.44 171.52H128.3C131.21 171.52 132.2 170.62 132.59 167.08C131.66 166.87 130.16 166.33 129.44 165.82C129.29 168.04 129.08 168.34 127.97 168.34H123.8ZM131.21 163.99C133.28 165.97 135.41 168.73 136.25 170.65L139.31 168.64C138.41 166.63 136.16 164.02 134.06 162.16L131.21 163.99Z" fill="#2ABAF3" fill-opacity="0.85"/>
<path d="M119.22 15.5942H43.716C37.7589 15.5942 32.9297 20.3765 32.9297 26.2758V101.047C32.9297 106.946 37.7589 111.728 43.716 111.728H119.22C125.177 111.728 130.006 106.946 130.006 101.047V26.2758C130.006 20.3765 125.177 15.5942 119.22 15.5942Z" stroke="white" stroke-width="10" stroke-linecap="round" stroke-linejoin="round"/>
<path d="M102.674 5.22681V26.9041" stroke="white" stroke-width="10" stroke-linecap="round" stroke-linejoin="round"/>
<path d="M60.262 5.22681V26.9041" stroke="white" stroke-width="10" stroke-linecap="round" stroke-linejoin="round"/>
<path d="M32.9297 47.6389H130.006" stroke="white" stroke-width="10" stroke-linecap="round" stroke-linejoin="round"/>
<path d="M64.9744 74.5943L74.5878 90.9936L97.0191 63.6614" stroke="white" stroke-width="10" stroke-linecap="round" stroke-linejoin="round"/>
</svg>
