<svg width="160" height="175" viewBox="0 0 160 175" fill="none" xmlns="http://www.w3.org/2000/svg">
<rect y="134" width="160" height="41" rx="20.5" fill="white" fill-opacity="0.71"/>
<path d="M43.14 163.71V159.18H40.89V161.73H39.03V158.67H36.6V167.01H39.03V163.71H43.14ZM40.35 148.08V146.7H45.3V148.08H40.35ZM45.3 143.13V144.54H40.35V143.13H45.3ZM26.82 146.7H31.62V148.08H26.82V146.7ZM31.62 143.13V144.54H26.82V143.13H31.62ZM48.75 140.73H36.96V150.48H38.34C38.01 151.02 37.62 151.65 37.23 152.19C36.99 152.01 36.75 151.83 36.54 151.68L35.25 153C36.18 153.72 37.2 154.68 37.89 155.49C37.53 155.88 37.14 156.24 36.78 156.57L35.85 156.63L35.88 156.69C35.58 156.06 35.22 155.43 34.83 154.86L33.12 155.4C33.3 155.67 33.45 155.94 33.6 156.24L31.92 156.36C33.06 155.31 34.29 153.99 35.31 152.85L33.51 152.01C33.09 152.61 32.52 153.33 31.92 154.02C31.74 153.81 31.5 153.6 31.26 153.36C31.92 152.64 32.73 151.62 33.54 150.66L33.09 150.48H34.98V140.73H23.4V167.61H26.82V150.48H31.11C30.78 151.05 30.36 151.68 30 152.25C29.76 152.07 29.52 151.89 29.28 151.74L28.17 153.15C29.01 153.81 30 154.68 30.66 155.46C30.3 155.82 29.94 156.21 29.61 156.51L27.9 156.63L28.14 158.55C30 158.4 32.13 158.22 34.38 158.01C34.44 158.25 34.5 158.46 34.56 158.67H32.79V161.49V161.73H30.99V159.18H28.8V163.71H32.22C31.74 164.43 30.87 165.06 29.28 165.51C29.76 165.96 30.54 166.86 30.81 167.43C34.59 166.17 35.16 163.89 35.16 161.55V158.67H34.74L36.18 158.19L36.27 158.55C37.98 158.4 39.99 158.25 42.03 158.04C42.15 158.37 42.21 158.64 42.27 158.91L44.16 158.31C43.92 157.32 43.23 155.79 42.45 154.68L40.65 155.22C40.86 155.55 41.07 155.94 41.28 156.3L39.21 156.45C40.38 155.37 41.64 154.08 42.72 152.91L40.8 152.04C40.38 152.64 39.84 153.33 39.24 154.02C39.03 153.81 38.82 153.57 38.55 153.36C39.27 152.58 40.08 151.62 40.86 150.66L40.41 150.48H45.3V163.47C45.3 163.86 45.18 164.01 44.79 164.01C44.4 164.04 43.23 164.04 42.12 163.98C42.57 164.91 42.99 166.5 43.11 167.46C45.09 167.46 46.44 167.4 47.49 166.8C48.51 166.23 48.75 165.21 48.75 163.5V140.73ZM58.5 150.66C58.53 149.61 58.56 148.53 58.59 147.45H65.22V144.15H60.45V139.62H56.91V144.15H52.23V147.45H55.14C55.08 154.95 54.84 161.22 51.63 165.15C52.5 165.75 53.64 166.95 54.15 167.82C56.97 164.46 57.99 159.6 58.35 153.9H60.81C60.69 160.89 60.48 163.41 60.09 163.98C59.85 164.37 59.61 164.46 59.22 164.43C58.74 164.43 57.93 164.43 56.94 164.34C57.45 165.24 57.81 166.62 57.87 167.58C59.13 167.61 60.3 167.61 61.08 167.46C61.92 167.31 62.49 167.01 63.09 166.2C63.87 165.09 64.02 161.55 64.17 152.07C64.2 151.65 64.2 150.66 64.2 150.66H58.5ZM65.94 161.31C69.45 162.96 73.83 165.63 75.87 167.61L78.24 164.49C76.08 162.51 71.52 160.05 68.07 158.55L65.94 161.31ZM76.14 155.31C75.03 153.96 72.72 152.13 70.83 150.93L68.49 153.18C70.38 154.47 72.63 156.45 73.59 157.83L76.14 155.31ZM70.08 139.5C69.06 143.16 66.72 147.81 63.81 149.88C64.38 150.78 65.1 152.25 65.43 153.3C68.43 151.08 70.8 146.91 71.94 143.61C73.14 147 75.51 151.05 78.54 153.24C79.02 152.07 79.65 150.6 80.28 149.61C77.46 147.93 75 143.64 73.56 139.5H70.08ZM109.23 145.2C108.36 143.79 106.38 141.81 104.79 140.43L102.09 142.26C103.71 143.7 105.57 145.83 106.35 147.21L109.23 145.2ZM105.39 152.46C104.61 153.9 103.62 155.25 102.54 156.54C102.21 155.01 101.91 153.27 101.67 151.47H109.47V148.08H101.31C101.07 145.44 100.95 142.65 101.01 139.86H97.26C97.29 142.59 97.38 145.38 97.62 148.08H91.86V144.03C93.6 143.67 95.25 143.28 96.75 142.83L94.35 139.8C91.29 140.79 86.64 141.75 82.44 142.32C82.83 143.13 83.31 144.45 83.46 145.32C84.99 145.14 86.64 144.93 88.26 144.66V148.08H82.59V151.47H88.26V155.49C85.89 155.91 83.73 156.24 82.02 156.51L82.89 160.11C84.48 159.81 86.34 159.42 88.26 159.03V163.38C88.26 163.86 88.08 164.01 87.54 164.01C87 164.04 85.26 164.07 83.58 163.98C84.09 164.97 84.69 166.59 84.84 167.58C87.27 167.61 89.07 167.46 90.24 166.89C91.44 166.32 91.86 165.36 91.86 163.41V158.28L96.75 157.29L96.48 154.05C94.95 154.32 93.39 154.62 91.86 154.89V151.47H97.95C98.31 154.41 98.82 157.14 99.48 159.51C97.41 161.22 95.1 162.69 92.79 163.74C93.66 164.55 94.65 165.78 95.16 166.62C97.08 165.63 98.97 164.4 100.71 162.96C102 165.9 103.68 167.7 105.87 167.7C108.6 167.7 109.71 166.38 110.28 161.13C109.32 160.74 108.12 159.93 107.34 159.09C107.19 162.63 106.83 164.07 106.2 164.07C105.3 164.07 104.37 162.69 103.56 160.38C105.51 158.43 107.19 156.24 108.54 153.81L105.39 152.46ZM126.21 143.88V145.59H123.75V143.88H126.21ZM123.75 149.91V148.14H126.21V149.91H123.75ZM128.91 141.18H120.48L120.66 140.61L117.36 139.62C116.04 144.03 113.82 148.41 111.42 151.2C111.99 152.13 112.86 154.2 113.13 155.04C113.76 154.32 114.39 153.48 114.99 152.58V167.58H118.38V146.43C119.16 144.72 119.85 142.95 120.45 141.24V167.52H123.75V152.61H128.91V141.18ZM133.08 149.91V148.14H135.75V149.91H133.08ZM135.75 143.88V145.59H133.08V143.88H135.75ZM139.17 141.18H130.26V152.61H135.75V163.41C135.75 163.98 135.54 164.16 134.97 164.16C134.37 164.19 132.3 164.22 130.47 164.1C130.92 165 131.46 166.56 131.61 167.55C134.43 167.55 136.32 167.46 137.55 166.89C138.75 166.38 139.17 165.42 139.17 163.44V141.18Z" fill="#2ABAF3" fill-opacity="0.85"/>
<path d="M132 49.8612C132.018 56.8272 130.39 63.6989 127.25 69.9167C123.526 77.3676 117.801 83.6346 110.717 88.0157C103.633 92.3968 95.4684 94.719 87.1388 94.7222C80.1729 94.7404 73.3011 93.1129 67.0833 89.9722L37 100L47.0278 69.9167C43.8871 63.6989 42.2596 56.8272 42.2778 49.8612C42.281 41.5316 44.6032 33.3674 48.9843 26.283C53.3654 19.1987 59.6324 13.474 67.0833 9.75014C73.3011 6.60951 80.1729 4.98199 87.1388 5.00015H89.7777C100.778 5.60705 111.169 10.2503 118.959 18.0408C126.75 25.8313 131.393 36.2216 132 47.2223V49.8612Z" stroke="white" stroke-width="10" stroke-linecap="round" stroke-linejoin="round"/>
</svg>
