<svg width="159" height="187" viewBox="0 0 159 187" fill="none" xmlns="http://www.w3.org/2000/svg">
<rect y="145" width="159" height="42" rx="21" fill="white" fill-opacity="0.71"/>
<path d="M53.25 168.58H58.86V170.68C58.86 171.01 58.74 171.1 58.38 171.1C58.05 171.1 56.82 171.13 55.86 171.04C56.25 171.79 56.76 172.84 57 173.71C55.5 172.93 54.24 172.09 53.25 171.22V168.58ZM44.76 161.05L47.46 160C47.25 159.43 46.86 158.68 46.44 157.9H50.13C49.77 158.26 49.41 158.62 49.02 158.92C49.29 159.07 49.59 159.25 49.92 159.46H49.41V161.05H44.76ZM62.55 165.55H53.25V164.11H64.05V161.05H53.25V159.64C53.7 159.13 54.15 158.53 54.57 157.9H56.01C56.67 158.98 57.3 160.18 57.54 160.99L60.72 159.97C60.51 159.4 60.12 158.65 59.67 157.9H64.56V154.93H56.22C56.49 154.36 56.73 153.79 56.94 153.25L53.43 152.38C52.8 154.18 51.81 155.98 50.58 157.39V154.93H44.1C44.37 154.39 44.61 153.82 44.82 153.31L41.46 152.38C40.47 154.84 38.73 157.36 36.84 158.95C37.68 159.4 39.12 160.33 39.81 160.9C40.65 160.09 41.52 159.07 42.3 157.9H42.81C43.44 158.95 44.04 160.18 44.34 161.05H37.98V164.11H49.41V165.55H39.9V173.89H43.68V168.58H49.41V170.68C46.86 173.59 42.21 175.84 37.23 176.83C37.98 177.55 38.97 178.93 39.45 179.83C43.2 178.81 46.68 177.04 49.41 174.67V180.64H53.25V174.76C55.74 176.77 59.13 178.66 62.97 179.62C63.45 178.69 64.47 177.25 65.22 176.47C62.25 175.93 59.46 174.97 57.18 173.8C58.8 173.8 60.15 173.77 61.17 173.35C62.25 172.9 62.55 172.18 62.55 170.68V165.55ZM109.593 172H112.233C112.803 173.32 113.523 174.49 114.333 175.51C112.743 175.75 111.123 175.96 109.593 176.17V172ZM111.093 166.96H115.563V169H111.093V166.96ZM111.093 162.01H115.563V163.99H111.093V162.01ZM103.443 156.88H119.313V158.98H103.443V156.88ZM120.303 172C119.433 172.66 118.293 173.41 117.243 174.04C116.613 173.41 116.073 172.75 115.593 172H120.303ZM121.353 172H124.503V169H118.863V166.96H123.183V163.99H118.863V162.01H122.943V153.88H99.8428V162.73C99.8428 167.5 99.6028 174.25 96.6328 178.87C97.5328 179.2 99.0928 180.13 99.8128 180.7C102.963 175.78 103.443 167.98 103.443 162.73V162.01H107.823V163.99H104.043V166.96H107.823V169H103.233V172H106.323V176.59C105.213 176.74 104.163 176.86 103.263 176.95L103.743 180.19C106.863 179.71 111.033 179.14 114.933 178.51L114.813 176.08C116.763 178.27 119.343 179.8 122.763 180.64C123.213 179.71 124.143 178.39 124.863 177.7C122.823 177.31 121.053 176.68 119.583 175.81C120.843 175.15 122.253 174.31 123.483 173.44L121.353 172Z" fill="#2ABAF3" fill-opacity="0.85"/>
<path d="M75.8245 16.0989C74.7812 16.0989 73.8538 17.0263 73.8538 18.0696C73.8538 19.1129 74.7812 20.0403 75.8245 20.0403C87.5328 20.0403 96.9226 29.546 96.9226 41.1384C96.9226 42.1817 97.85 43.1091 98.8933 43.1091C99.9366 43.1091 100.864 42.1817 100.864 41.1384C100.98 27.3435 89.7353 16.0989 75.8245 16.0989Z" fill="white" stroke="white" stroke-width="4.5"/>
<path d="M131.503 46.9011C131.503 48.0604 132.43 48.8718 133.473 48.8718L146.92 48.8718C147.964 48.8718 148.891 47.9444 148.891 46.9011C148.891 45.8578 147.964 44.9304 146.92 44.9304L133.473 44.9304C132.43 44.9304 131.503 45.8578 131.503 46.9011Z" fill="white" stroke="white" stroke-width="4.5"/>
<path d="M127.433 70.0039L138.984 76.6613C139.9 77.1473 141.183 76.8305 141.669 75.9146C142.271 75.0015 141.954 73.7183 140.922 73.2295L129.372 66.5721C129.027 66.4478 128.798 66.3263 128.45 66.3179C127.755 66.301 127.051 66.6319 126.686 67.3188C126.2 68.2347 126.517 69.5179 127.433 70.0039Z" fill="white" stroke="white" stroke-width="4.5"/>
<path d="M141.77 13.6356C141.306 12.7082 140.031 12.3604 139.104 12.8241L127.279 19.1999C126.352 19.6636 126.004 20.9388 126.468 21.8662C126.816 22.5617 127.511 22.9095 128.207 22.9095C128.555 22.9095 128.902 22.7936 129.134 22.6776L140.958 16.3018C141.886 15.8381 142.234 14.563 141.77 13.6356Z" fill="white" stroke="white" stroke-width="4.5"/>
<path d="M68 101C63.0294 101 59 105.029 59 110V112C59 116.971 63.0294 121 68 121H83C87.9706 121 92 116.971 92 112V110C92 105.029 87.9706 101 83 101H68Z" stroke="white" stroke-width="8" stroke-linecap="round" stroke-linejoin="round"/>
<path d="M98.6855 71.5857L96.2104 68.4435L98.6855 71.5857ZM109 42.1104C109 52.7908 104.006 62.3027 96.2104 68.4435L101.161 74.728C110.799 67.1356 117 55.3459 117 42.1104H109ZM75.5 8.61035C94.0015 8.61035 109 23.6088 109 42.1104H117C117 19.1905 98.4198 0.610352 75.5 0.610352V8.61035ZM42 42.1104C42 23.6088 56.9985 8.61035 75.5 8.61035V0.610352C52.5802 0.610352 34 19.1905 34 42.1104H42ZM54.7896 68.4435C46.9937 62.3027 42 52.7908 42 42.1104H34C34 55.3459 40.2005 67.1356 49.8393 74.728L54.7896 68.4435ZM60 80V78.639H52V80H60ZM87 84H64V92H87V84ZM91 78.639V80H99V78.639H91ZM52 80C52 86.6274 57.3726 92 64 92V84C61.7909 84 60 82.2091 60 80H52ZM49.8393 74.728C51.2786 75.8617 52 77.321 52 78.639H60C60 74.3784 57.7327 70.7617 54.7896 68.4435L49.8393 74.728ZM87 92C93.6274 92 99 86.6274 99 80H91C91 82.2091 89.2091 84 87 84V92ZM96.2104 68.4435C93.2673 70.7617 91 74.3784 91 78.639H99C99 77.321 99.7214 75.8617 101.161 74.728L96.2104 68.4435Z" fill="white"/>
</svg>
