<svg width="159" height="184" viewBox="0 0 159 184" fill="none" xmlns="http://www.w3.org/2000/svg">
<rect y="142" width="159" height="42" rx="21" fill="white" fill-opacity="0.71"/>
<path d="M63.99 151.3H49.41V154.69H63.99V151.3ZM43.65 149.59C42.21 151.69 39.36 154.39 36.87 155.98C37.5 156.67 38.4 158.11 38.85 158.89C41.7 156.91 44.94 153.82 47.1 151L43.65 149.59ZM44.79 156.07C42.87 159.46 39.6 162.94 36.54 165.04C37.26 165.79 38.46 167.41 38.97 168.13C39.78 167.47 40.59 166.72 41.43 165.91V177.64H45V161.98C46.2 160.48 47.31 158.92 48.21 157.39L44.79 156.07ZM64.74 159.55H48.15V162.94H57V173.38C57 173.83 56.79 173.95 56.25 173.95C55.71 173.98 53.73 173.98 52.02 173.89C52.5 174.94 52.95 176.47 53.1 177.52C55.77 177.52 57.69 177.46 58.95 176.92C60.27 176.38 60.63 175.39 60.63 173.47V162.94H64.74V159.55ZM125.073 157.39C124.443 155.56 122.853 152.89 121.443 150.91L118.563 152.29C119.943 154.36 121.443 157.15 121.983 158.95L125.073 157.39ZM100.773 157C101.913 155.62 102.843 154.24 103.563 152.98C104.793 154.15 106.083 155.74 106.953 157H100.773ZM104.673 165.19H108.573V162.16H104.673V159.97H107.703V157.39L109.593 154.84C108.513 153.25 106.233 151.09 104.433 149.62H101.583C100.623 151.93 98.9128 154.75 96.4228 156.88C97.1428 157.33 98.1628 158.53 98.6128 159.25L98.8228 159.04V159.97H101.583V162.16H97.5028V165.19H101.583V173.14C99.9328 173.38 98.4028 173.62 97.1428 173.77L97.8328 176.95C100.983 176.41 105.243 175.69 109.173 174.94L108.993 171.94C107.553 172.18 106.083 172.42 104.673 172.66V165.19ZM97.6828 166.93C98.1628 168.58 98.6128 170.71 98.7028 172.15L101.163 171.46C101.013 170.08 100.533 167.95 100.023 166.33L97.6828 166.93ZM107.103 171.76C107.613 170.47 108.183 168.49 108.783 166.72L106.083 166.06C105.903 167.56 105.393 169.75 104.973 171.13L107.103 171.76ZM113.553 168.94V166.9H120.213V168.94H113.553ZM120.213 162.13V163.99H113.553V162.13H120.213ZM123.633 159.01H118.503V149.59H115.053V159.01H111.423C112.683 157.24 113.943 154.48 114.663 151.84L111.393 151.09C110.823 153.37 109.773 155.77 108.513 157.3C109.263 157.69 110.553 158.5 111.243 159.01H110.133V177.58H113.553V171.88H120.213V173.74C120.213 174.1 120.063 174.22 119.673 174.22C119.253 174.22 117.903 174.25 116.673 174.16C117.153 175.12 117.663 176.62 117.753 177.61C119.763 177.61 121.203 177.55 122.253 176.98C123.333 176.41 123.633 175.45 123.633 173.8V159.01Z" fill="#2ABAF3" fill-opacity="0.85"/>
<path d="M53.1439 110.837H126.405M23.4512 110.837H36.2767M53.1439 116.738V106.116M36.2767 116.738V106.116" stroke="white" stroke-width="10" stroke-linecap="round" stroke-linejoin="round"/>
<rect x="26" y="5" width="98.674" height="73.3439" rx="10" stroke="white" stroke-width="10" stroke-linecap="round" stroke-linejoin="round"/>
<path d="M63.489 60.4651V22.0615L93.7216 40.6814L63.489 60.4651Z" stroke="white" stroke-width="10" stroke-linecap="round" stroke-linejoin="round"/>
</svg>
