<svg width="159" height="175" viewBox="0 0 159 175" fill="none" xmlns="http://www.w3.org/2000/svg">
<rect y="134" width="159" height="41" rx="20.5" fill="white" fill-opacity="0.71"/>
<path d="M26.2 144.31V145.54H22.99C23.29 145.15 23.56 144.73 23.8 144.31H26.2ZM28.06 147.73V149.2L27.13 149.26L27.49 151.51L33.52 150.82L33.49 148.78C32.56 148.87 31.66 148.93 30.79 148.99V147.73H33.49V145.54H29.05V144.31H32.89V142.24H29.05V140.59H26.2V142.24H24.73C24.85 141.85 25 141.46 25.12 141.07L22.72 140.71C22.36 141.91 21.7 143.32 20.74 144.4C21.4 144.64 22.24 145.09 22.81 145.54H20.59V147.73H23.68C23.23 149.08 22.3 150.07 20.05 150.73C20.65 151.24 21.4 152.29 21.7 152.92C24.76 151.81 25.99 150.07 26.5 147.73H28.06ZM27.7 160.57H40.6V161.83H27.7V160.57ZM27.7 157.33H40.6V158.56H27.7V157.33ZM27.7 154.09H40.6V155.35H27.7V154.09ZM39.37 144.31V145.54H36.1C36.43 145.15 36.7 144.73 36.97 144.31H39.37ZM44.23 163.96V151.99H36.16C38.44 151 39.37 149.62 39.79 147.73H40.99V149.02C40.99 151.18 41.44 151.87 43.66 151.87H45.37C46.93 151.87 47.59 151.27 47.83 149.11C47.11 148.96 46.03 148.57 45.55 148.21C45.46 149.47 45.37 149.62 45.01 149.62H44.14C43.78 149.62 43.75 149.53 43.75 148.99V147.73H47.38V145.54H42.25V144.31H46.48V142.24H42.25V140.59H39.37V142.24H37.96C38.11 141.88 38.26 141.49 38.38 141.1L35.92 140.71C35.53 141.91 34.87 143.32 33.85 144.4C34.48 144.61 35.35 145.09 35.86 145.54H34.24V147.73H36.97C36.55 148.87 35.65 149.65 33.52 150.16C34 150.55 34.57 151.33 34.93 151.99H24.22V163.96H28.54C26.44 164.86 23.2 165.61 20.29 166.06C21.04 166.66 22.24 167.95 22.87 168.67C25.96 167.92 29.89 166.6 32.38 165.1L29.77 163.96H37.99L35.65 165.43C38.8 166.45 41.95 167.74 43.72 168.64L47.59 166.9C45.61 166.06 42.4 164.89 39.46 163.96H44.23ZM55.06 157.39H59.02V160.21C57.64 160.48 56.32 160.78 55.06 161.02V157.39ZM59.02 145.03V148.06H55.06V145.03H59.02ZM59.02 154.27H55.06V151.18H59.02V154.27ZM77.05 147.04H70.54C70.6 145 70.6 142.84 70.6 140.59H67.09C67.09 142.87 67.09 145 67.06 147.04H63.13V150.4H66.94C66.67 155.05 65.95 158.92 63.94 162.04L63.61 159.22L62.32 159.49V141.82H51.91V161.62C51.16 161.77 50.44 161.89 49.84 162.01L50.41 165.67C54.07 164.8 58.99 163.66 63.58 162.52C62.68 163.81 61.51 164.92 60.04 165.91C60.88 166.54 61.99 167.74 62.53 168.61C68.32 164.62 69.94 158.32 70.39 150.4H73.57C73.39 160.03 73.12 163.75 72.43 164.56C72.16 164.98 71.86 165.07 71.38 165.07C70.72 165.07 69.37 165.04 67.9 164.95C68.53 165.88 68.89 167.38 68.95 168.34C70.51 168.4 72.07 168.43 73.03 168.25C74.11 168.07 74.83 167.74 75.52 166.72C76.51 165.34 76.78 160.93 77.05 148.63V147.04ZM107.23 146.2C106.36 144.79 104.38 142.81 102.79 141.43L100.09 143.26C101.71 144.7 103.57 146.83 104.35 148.21L107.23 146.2ZM103.39 153.46C102.61 154.9 101.62 156.25 100.54 157.54C100.21 156.01 99.91 154.27 99.67 152.47H107.47V149.08H99.31C99.07 146.44 98.95 143.65 99.01 140.86H95.26C95.29 143.59 95.38 146.38 95.62 149.08H89.86V145.03C91.6 144.67 93.25 144.28 94.75 143.83L92.35 140.8C89.29 141.79 84.64 142.75 80.44 143.32C80.83 144.13 81.31 145.45 81.46 146.32C82.99 146.14 84.64 145.93 86.26 145.66V149.08H80.59V152.47H86.26V156.49C83.89 156.91 81.73 157.24 80.02 157.51L80.89 161.11C82.48 160.81 84.34 160.42 86.26 160.03V164.38C86.26 164.86 86.08 165.01 85.54 165.01C85 165.04 83.26 165.07 81.58 164.98C82.09 165.97 82.69 167.59 82.84 168.58C85.27 168.61 87.07 168.46 88.24 167.89C89.44 167.32 89.86 166.36 89.86 164.41V159.28L94.75 158.29L94.48 155.05C92.95 155.32 91.39 155.62 89.86 155.89V152.47H95.95C96.31 155.41 96.82 158.14 97.48 160.51C95.41 162.22 93.1 163.69 90.79 164.74C91.66 165.55 92.65 166.78 93.16 167.62C95.08 166.63 96.97 165.4 98.71 163.96C100 166.9 101.68 168.7 103.87 168.7C106.6 168.7 107.71 167.38 108.28 162.13C107.32 161.74 106.12 160.93 105.34 160.09C105.19 163.63 104.83 165.07 104.2 165.07C103.3 165.07 102.37 163.69 101.56 161.38C103.51 159.43 105.19 157.24 106.54 154.81L103.39 153.46ZM124.21 144.88V146.59H121.75V144.88H124.21ZM121.75 150.91V149.14H124.21V150.91H121.75ZM126.91 142.18H118.48L118.66 141.61L115.36 140.62C114.04 145.03 111.82 149.41 109.42 152.2C109.99 153.13 110.86 155.2 111.13 156.04C111.76 155.32 112.39 154.48 112.99 153.58V168.58H116.38V147.43C117.16 145.72 117.85 143.95 118.45 142.24V168.52H121.75V153.61H126.91V142.18ZM131.08 150.91V149.14H133.75V150.91H131.08ZM133.75 144.88V146.59H131.08V144.88H133.75ZM137.17 142.18H128.26V153.61H133.75V164.41C133.75 164.98 133.54 165.16 132.97 165.16C132.37 165.19 130.3 165.22 128.47 165.1C128.92 166 129.46 167.56 129.61 168.55C132.43 168.55 134.32 168.46 135.55 167.89C136.75 167.38 137.17 166.42 137.17 164.44V142.18Z" fill="#2ABAF3" fill-opacity="0.85"/>
<path d="M104 105V95C104 89.6957 101.893 84.6086 98.1421 80.8579C94.3914 77.1071 89.3043 75 84 75H44C38.6957 75 33.6086 77.1071 29.8579 80.8579C26.1071 84.6086 24 89.6957 24 95V105" stroke="white" stroke-width="10" stroke-linecap="round" stroke-linejoin="round"/>
<path d="M64 55C75.0457 55 84 46.0457 84 35C84 23.9543 75.0457 15 64 15C52.9543 15 44 23.9543 44 35C44 46.0457 52.9543 55 64 55Z" stroke="white" stroke-width="10" stroke-linecap="round" stroke-linejoin="round"/>
<path d="M134 105V94.9999C133.997 90.5685 132.522 86.2638 129.807 82.7615C127.092 79.2592 123.291 76.7577 119 75.6499" stroke="white" stroke-width="10" stroke-linecap="round" stroke-linejoin="round"/>
<path d="M99 15.6501C103.302 16.7517 107.115 19.2537 109.838 22.7617C112.561 26.2697 114.039 30.5843 114.039 35.0251C114.039 39.466 112.561 43.7805 109.838 47.2886C107.115 50.7966 103.302 53.2986 99 54.4001" stroke="white" stroke-width="10" stroke-linecap="round" stroke-linejoin="round"/>
</svg>
