<svg width="159" height="197" viewBox="0 0 159 197" fill="none" xmlns="http://www.w3.org/2000/svg">
<rect y="156" width="159" height="41" rx="20.5" fill="white" fill-opacity="0.71"/>
<path d="M49.23 168.2C48.36 166.79 46.38 164.81 44.79 163.43L42.09 165.26C43.71 166.7 45.57 168.83 46.35 170.21L49.23 168.2ZM45.39 175.46C44.61 176.9 43.62 178.25 42.54 179.54C42.21 178.01 41.91 176.27 41.67 174.47H49.47V171.08H41.31C41.07 168.44 40.95 165.65 41.01 162.86H37.26C37.29 165.59 37.38 168.38 37.62 171.08H31.86V167.03C33.6 166.67 35.25 166.28 36.75 165.83L34.35 162.8C31.29 163.79 26.64 164.75 22.44 165.32C22.83 166.13 23.31 167.45 23.46 168.32C24.99 168.14 26.64 167.93 28.26 167.66V171.08H22.59V174.47H28.26V178.49C25.89 178.91 23.73 179.24 22.02 179.51L22.89 183.11C24.48 182.81 26.34 182.42 28.26 182.03V186.38C28.26 186.86 28.08 187.01 27.54 187.01C27 187.04 25.26 187.07 23.58 186.98C24.09 187.97 24.69 189.59 24.84 190.58C27.27 190.61 29.07 190.46 30.24 189.89C31.44 189.32 31.86 188.36 31.86 186.41V181.28L36.75 180.29L36.48 177.05C34.95 177.32 33.39 177.62 31.86 177.89V174.47H37.95C38.31 177.41 38.82 180.14 39.48 182.51C37.41 184.22 35.1 185.69 32.79 186.74C33.66 187.55 34.65 188.78 35.16 189.62C37.08 188.63 38.97 187.4 40.71 185.96C42 188.9 43.68 190.7 45.87 190.7C48.6 190.7 49.71 189.38 50.28 184.13C49.32 183.74 48.12 182.93 47.34 182.09C47.19 185.63 46.83 187.07 46.2 187.07C45.3 187.07 44.37 185.69 43.56 183.38C45.51 181.43 47.19 179.24 48.54 176.81L45.39 175.46ZM62.64 181.64H69.96C69.24 182.75 68.34 183.68 67.23 184.43C65.4 183.95 63.51 183.5 61.65 183.11L62.64 181.64ZM57.6 171.26H60.75V174.05H57.6V171.26ZM64.11 166.73H67.5V168.44H64.11V166.73ZM74.46 171.26V174.05H70.86V171.26H74.46ZM64.11 174.05V171.26H67.5V174.05H64.11ZM79.71 181.64V178.76H64.56C64.98 178.1 65.37 177.47 65.76 176.84H78.03V168.44H70.86V166.73H78.99V163.64H52.86V166.73H60.75V168.44H54.24V176.84H61.68C61.29 177.47 60.9 178.1 60.48 178.76H52.32V181.64H58.56C57.66 182.93 56.79 184.1 56.04 185.06L59.49 186.14L59.82 185.69C60.81 185.9 61.77 186.14 62.73 186.38C60.06 187.07 56.82 187.43 52.86 187.58C53.4 188.36 53.97 189.62 54.21 190.64C60.03 190.19 64.47 189.41 67.83 187.76C71.22 188.75 74.25 189.8 76.53 190.73L78.72 187.82C76.68 187.1 74.07 186.29 71.16 185.48C72.27 184.43 73.2 183.17 73.95 181.64H79.71ZM91.14 176.75H86.79L87.75 176.48C87.63 175.64 87.21 174.35 86.7 173.27H91.26C90.99 174.29 90.54 175.58 90.18 176.48L91.14 176.75ZM90.63 168.2H94.53V165.26H90.63V162.65H87.33V165.26H83.04V168.2H87.33V170.27H81.99V173.27H84.96L83.88 173.54C84.3 174.53 84.69 175.79 84.87 176.75H82.62V179.75H87.33V182.06H82.86V185.06H87.33V190.52H90.63V185.06H94.86V182.06H90.63V179.75H95.19V176.75H92.94C93.36 175.85 93.81 174.68 94.32 173.57L93.15 173.27H95.64V170.27H90.63V168.2ZM99.42 178.19C100.17 180.56 101.13 182.75 102.3 184.67C101.46 185.84 100.5 186.86 99.42 187.73V178.19ZM105.66 176.96C105.3 178.58 104.76 180.17 104.07 181.61C103.2 180.17 102.48 178.61 101.94 176.96H105.66ZM107.25 173.99L106.65 174.14H99.42V166.97H105.39V169.43C105.39 169.76 105.24 169.85 104.79 169.88C104.34 169.88 102.69 169.88 101.22 169.82C101.64 170.69 102.09 171.92 102.24 172.88C104.43 172.88 106.05 172.85 107.19 172.37C108.36 171.89 108.69 171.02 108.69 169.49V163.85H96.18V190.58H99.42V188.81C100.05 189.38 100.68 190.07 101.07 190.67C102.3 189.77 103.38 188.69 104.34 187.46C105.45 188.72 106.68 189.8 108.09 190.64C108.6 189.74 109.62 188.48 110.4 187.82C108.84 187.04 107.46 185.9 106.23 184.55C107.76 181.73 108.81 178.37 109.38 174.74L107.25 173.99ZM123.99 186.2V180.35H134.16V186.2H123.99ZM129.27 168.65C128.19 170.63 126.78 172.49 125.1 174.14C123.84 172.85 121.92 171.35 120.33 170.18C120.84 169.67 121.32 169.16 121.8 168.65H129.27ZM137.88 177.11H127.17C130.17 174.26 132.6 170.75 134.13 166.64L131.67 165.35L131.07 165.53H124.26C124.8 164.75 125.31 163.97 125.76 163.19L121.74 162.44C120 165.71 116.7 169.37 111.78 171.98C112.59 172.58 113.76 173.9 114.3 174.77C115.5 174.05 116.61 173.3 117.63 172.49C119.22 173.75 121.02 175.31 122.22 176.63C119.1 178.94 115.47 180.74 111.72 181.82C112.47 182.54 113.37 184.01 113.79 185C116.07 184.22 118.32 183.26 120.42 182.06V190.58H123.99V189.41H134.16V190.61H137.88V177.11Z" fill="#2ABAF3" fill-opacity="0.85"/>
<path d="M74.5 124.964H124.375" stroke="white" stroke-width="10" stroke-linecap="round" stroke-linejoin="round"/>
<path d="M99.4375 33.5264C101.642 31.3218 104.632 30.0833 107.75 30.0833C109.294 30.0833 110.822 30.3873 112.249 30.9781C113.675 31.5689 114.971 32.4348 116.062 33.5264C117.154 34.618 118.02 35.9139 118.611 37.3402C119.202 38.7665 119.506 40.2951 119.506 41.8389C119.506 43.3827 119.202 44.9113 118.611 46.3376C118.02 47.7639 117.154 49.0598 116.062 50.1514L46.7917 119.422L24.625 124.964L30.1667 102.797L99.4375 33.5264Z" stroke="white" stroke-width="10" stroke-linecap="round" stroke-linejoin="round"/>
</svg>
