<svg width="164" height="223" viewBox="0 0 164 223" fill="none" xmlns="http://www.w3.org/2000/svg">
<rect x="5" y="181" width="159" height="42" rx="21" fill="white" fill-opacity="0.71"/>
<path d="M58.27 191.25C57.91 190.92 57.4 190.53 56.83 190.11C57.4 189.6 57.91 189.03 58.33 188.46L56.02 187.77C55.72 188.16 55.36 188.55 54.97 188.91C54.37 188.55 53.77 188.22 53.23 187.95L51.58 189.33C52.09 189.6 52.63 189.9 53.17 190.23C52.42 190.71 51.64 191.1 50.83 191.43C51.4 191.82 52.33 192.63 52.72 193.05C53.5 192.63 54.31 192.12 55.12 191.55C55.69 192 56.17 192.42 56.53 192.78L58.27 191.25ZM60.76 202.02L60.01 202.2H47.26V204.69H56.92C56.32 205.14 55.66 205.56 55.03 205.92H53.26V207.3H41.95V210.09H53.26V212.16C53.26 212.55 53.11 212.64 52.63 212.67C52.15 212.67 50.38 212.67 48.91 212.61C49.36 213.45 49.87 214.68 50.05 215.61C52.3 215.61 53.95 215.61 55.15 215.13C56.41 214.68 56.74 213.93 56.74 212.28V210.09H68.08V207.3H57.55C59.38 206.25 61.24 205.02 62.74 203.82L60.76 202.02ZM65.86 198.33C66.16 195.54 66.4 191.73 66.55 188.55H58.99V190.8H63.07L63.01 191.82H59.11V194.04H62.86L62.8 195.06H59.02V197.28H62.59L62.5 198.33H47.53L47.47 197.28H51.22V197.01C51.76 197.4 52.39 197.97 52.72 198.3C53.53 197.85 54.4 197.31 55.24 196.68C55.87 197.16 56.41 197.61 56.77 198L58.57 196.5C58.15 196.11 57.58 195.66 56.95 195.21C57.55 194.67 58.06 194.07 58.48 193.47L56.17 192.78C55.87 193.2 55.48 193.62 55.06 194.01C54.46 193.65 53.86 193.32 53.32 193.05L51.67 194.4C52.18 194.7 52.75 195.03 53.29 195.36C52.63 195.78 51.94 196.17 51.22 196.53V195.06H47.35L47.29 194.04H51.13V191.82H47.17L47.14 191.13C48.52 190.77 50.11 190.26 51.37 189.66L49.72 187.74C48.67 188.19 47.05 188.85 45.64 189.3L43.69 188.91L44.26 198.33H41.95V204.48H45.34V200.91H64.6V204.48H68.14V198.33H65.86ZM128.413 189.21H121.303V192.33H128.413V189.21ZM121.003 192.45C120.643 191.34 119.743 189.66 118.963 188.37L116.593 189.36C117.373 190.68 118.213 192.45 118.573 193.56L121.003 192.45ZM105.703 187.62C104.653 189.51 102.583 191.88 100.663 193.35C101.203 193.95 102.073 195.27 102.493 196.02C104.803 194.19 107.323 191.37 108.913 188.76L105.703 187.62ZM109.393 200.1C109.213 203.79 108.823 207.54 107.743 209.94C108.403 210.33 109.633 211.17 110.143 211.59C111.313 208.86 111.943 204.69 112.243 200.52L109.393 200.1ZM120.253 197.22V193.95H116.383V188.04H113.083V193.95H109.093V194.82L106.393 193.89C104.983 196.98 102.673 200.1 100.303 202.08C100.933 202.83 101.893 204.63 102.223 205.38C102.823 204.81 103.453 204.18 104.053 203.49V215.61H107.353V199.05C107.983 198.06 108.583 197.01 109.093 195.99V197.22H113.083V215.13H116.383V197.22H120.253ZM116.953 200.67C117.523 203.52 118.063 207.21 118.153 209.61L120.913 209.07C120.733 206.64 120.193 203.04 119.563 200.16L116.953 200.67ZM128.863 197.64H120.553V200.82H123.163V211.68C123.163 212.07 123.043 212.16 122.653 212.16C122.293 212.16 121.033 212.16 119.803 212.1C120.253 213.15 120.673 214.59 120.763 215.58C122.743 215.58 124.213 215.52 125.263 214.95C126.313 214.38 126.553 213.42 126.553 211.74V200.82H128.863V197.64Z" fill="#2ABAF3" fill-opacity="0.85"/>
<g clip-path="url(#clip0)">
<path d="M91.6065 47.2949H49.9399C47.1772 47.2949 44.5277 48.3924 42.5742 50.3459C40.6207 52.2994 39.5232 54.9489 39.5232 57.7116V141.045C39.5232 143.808 40.6207 146.457 42.5742 148.411C44.5277 150.364 47.1772 151.462 49.9399 151.462H112.44C115.203 151.462 117.852 150.364 119.806 148.411C121.759 146.457 122.857 143.808 122.857 141.045V78.5449L91.6065 47.2949Z" stroke="white" stroke-width="10" stroke-linecap="round" stroke-linejoin="round"/>
<path d="M91.6067 47.2949V78.5449H122.857" stroke="white" stroke-width="10" stroke-linecap="round" stroke-linejoin="round"/>
<path d="M102.023 104.587H60.3567" stroke="white" stroke-width="10" stroke-linecap="round" stroke-linejoin="round"/>
<path d="M102.023 125.42H60.3567" stroke="white" stroke-width="10" stroke-linecap="round" stroke-linejoin="round"/>
<path d="M70.7734 83.7534H65.565H60.3567" stroke="white" stroke-width="10" stroke-linecap="round" stroke-linejoin="round"/>
</g>
<defs>
<clipPath id="clip0">
<rect width="160.224" height="164.936" fill="white" transform="translate(0.540039 0.699707)"/>
</clipPath>
</defs>
</svg>
